<mxfile host="Electron" modified="2023-11-07T12:34:45.736Z" agent="Mozilla/5.0 (Windows NT 10.0; Win64; x64) AppleWebKit/537.36 (KHTML, like Gecko) draw.io/22.0.3 Chrome/114.0.5735.289 Electron/25.8.4 Safari/537.36" etag="Kgywwvrn9D4UqVqOO971" version="22.0.3" type="device">
  <diagram name="Sayfa -1" id="TElUqwyG5KO-uIkUwaSR">
    <mxGraphModel dx="1036" dy="606" grid="1" gridSize="10" guides="1" tooltips="1" connect="1" arrows="1" fold="1" page="1" pageScale="1" pageWidth="827" pageHeight="1169" math="0" shadow="0">
      <root>
        <mxCell id="0" />
        <mxCell id="1" parent="0" />
        <mxCell id="JYRg4kEmxgdDSoZz9MIl-2" style="edgeStyle=orthogonalEdgeStyle;rounded=0;orthogonalLoop=1;jettySize=auto;html=1;" parent="1" source="JYRg4kEmxgdDSoZz9MIl-1" target="JYRg4kEmxgdDSoZz9MIl-3" edge="1">
          <mxGeometry relative="1" as="geometry">
            <mxPoint x="390" y="160" as="targetPoint" />
          </mxGeometry>
        </mxCell>
        <mxCell id="JYRg4kEmxgdDSoZz9MIl-1" value="start" style="ellipse;whiteSpace=wrap;html=1;" parent="1" vertex="1">
          <mxGeometry x="330" y="20" width="120" height="80" as="geometry" />
        </mxCell>
        <mxCell id="JYRg4kEmxgdDSoZz9MIl-4" style="edgeStyle=orthogonalEdgeStyle;rounded=0;orthogonalLoop=1;jettySize=auto;html=1;" parent="1" source="JYRg4kEmxgdDSoZz9MIl-3" target="JYRg4kEmxgdDSoZz9MIl-5" edge="1">
          <mxGeometry relative="1" as="geometry">
            <mxPoint x="390" y="240" as="targetPoint" />
          </mxGeometry>
        </mxCell>
        <mxCell id="JYRg4kEmxgdDSoZz9MIl-3" value="sayac==S&lt;br&gt;kare==K" style="rounded=0;whiteSpace=wrap;html=1;" parent="1" vertex="1">
          <mxGeometry x="330" y="130" width="120" height="60" as="geometry" />
        </mxCell>
        <mxCell id="JYRg4kEmxgdDSoZz9MIl-6" style="edgeStyle=orthogonalEdgeStyle;rounded=0;orthogonalLoop=1;jettySize=auto;html=1;" parent="1" source="JYRg4kEmxgdDSoZz9MIl-5" target="JYRg4kEmxgdDSoZz9MIl-7" edge="1">
          <mxGeometry relative="1" as="geometry">
            <mxPoint x="390" y="320" as="targetPoint" />
          </mxGeometry>
        </mxCell>
        <mxCell id="JYRg4kEmxgdDSoZz9MIl-5" value="S==1" style="rounded=0;whiteSpace=wrap;html=1;" parent="1" vertex="1">
          <mxGeometry x="330" y="210" width="120" height="60" as="geometry" />
        </mxCell>
        <mxCell id="JYRg4kEmxgdDSoZz9MIl-10" value="TRUE" style="edgeStyle=orthogonalEdgeStyle;rounded=0;orthogonalLoop=1;jettySize=auto;html=1;entryX=0.75;entryY=0;entryDx=0;entryDy=0;" parent="1" source="JYRg4kEmxgdDSoZz9MIl-7" target="JYRg4kEmxgdDSoZz9MIl-9" edge="1">
          <mxGeometry relative="1" as="geometry" />
        </mxCell>
        <mxCell id="JYRg4kEmxgdDSoZz9MIl-17" value="F" style="edgeStyle=orthogonalEdgeStyle;rounded=0;orthogonalLoop=1;jettySize=auto;html=1;" parent="1" source="JYRg4kEmxgdDSoZz9MIl-7" edge="1">
          <mxGeometry relative="1" as="geometry">
            <mxPoint x="340" y="680" as="targetPoint" />
          </mxGeometry>
        </mxCell>
        <mxCell id="JYRg4kEmxgdDSoZz9MIl-7" value="S&amp;lt;11" style="rhombus;whiteSpace=wrap;html=1;" parent="1" vertex="1">
          <mxGeometry x="360" y="300" width="80" height="80" as="geometry" />
        </mxCell>
        <mxCell id="JYRg4kEmxgdDSoZz9MIl-13" style="edgeStyle=orthogonalEdgeStyle;rounded=0;orthogonalLoop=1;jettySize=auto;html=1;" parent="1" source="JYRg4kEmxgdDSoZz9MIl-9" edge="1">
          <mxGeometry relative="1" as="geometry">
            <mxPoint x="620" y="480" as="targetPoint" />
          </mxGeometry>
        </mxCell>
        <mxCell id="JYRg4kEmxgdDSoZz9MIl-9" value="K==S*S" style="rounded=0;whiteSpace=wrap;html=1;" parent="1" vertex="1">
          <mxGeometry x="560" y="380" width="120" height="50" as="geometry" />
        </mxCell>
        <mxCell id="JYRg4kEmxgdDSoZz9MIl-14" style="edgeStyle=orthogonalEdgeStyle;rounded=0;orthogonalLoop=1;jettySize=auto;html=1;" parent="1" source="JYRg4kEmxgdDSoZz9MIl-12" target="JYRg4kEmxgdDSoZz9MIl-15" edge="1">
          <mxGeometry relative="1" as="geometry">
            <mxPoint x="620" y="640.7999877929688" as="targetPoint" />
          </mxGeometry>
        </mxCell>
        <mxCell id="JYRg4kEmxgdDSoZz9MIl-12" value="K" style="shape=document;whiteSpace=wrap;html=1;boundedLbl=1;" parent="1" vertex="1">
          <mxGeometry x="560" y="480" width="120" height="80" as="geometry" />
        </mxCell>
        <mxCell id="JYRg4kEmxgdDSoZz9MIl-16" style="edgeStyle=orthogonalEdgeStyle;rounded=0;orthogonalLoop=1;jettySize=auto;html=1;" parent="1" edge="1">
          <mxGeometry relative="1" as="geometry">
            <mxPoint x="570" y="630.8" as="sourcePoint" />
            <mxPoint x="430" y="350" as="targetPoint" />
            <Array as="points">
              <mxPoint x="430" y="631" />
            </Array>
          </mxGeometry>
        </mxCell>
        <mxCell id="JYRg4kEmxgdDSoZz9MIl-15" value="S=S+1" style="rounded=0;whiteSpace=wrap;html=1;" parent="1" vertex="1">
          <mxGeometry x="560" y="610.7999877929688" width="120" height="60" as="geometry" />
        </mxCell>
        <mxCell id="ZwTw9uWJk93T5RWniIiu-1" value="FİNİSH" style="ellipse;whiteSpace=wrap;html=1;" parent="1" vertex="1">
          <mxGeometry x="280" y="680" width="120" height="80" as="geometry" />
        </mxCell>
      </root>
    </mxGraphModel>
  </diagram>
</mxfile>
